<svg width="763" height="213" viewBox="0 0 763 213" fill="none" xmlns="http://www.w3.org/2000/svg">
<g clip-path="url(#clip0_4_30)">
<g filter="url(#filter0_d_4_30)">
<path d="M32.3894 101.134C38.2472 95.2765 54.5315 100.072 60.3894 105.93L94.8513 136.49C100.709 142.348 100.709 151.845 94.8513 157.703C88.9934 163.561 79.496 163.561 73.6381 157.703L38.2828 122.348C32.4249 116.49 28.8893 105.93 32.3894 101.134Z" fill="url(#paint0_linear_4_30)"/>
<path d="M74.2828 158.46C68.4249 152.602 68.4249 143.105 74.2828 137.247L162.5 58.2598C167.654 52.6762 177.664 51.1511 184.77 52.4168C186.938 52.803 189.108 53.9605 189.77 56.0611C191.467 61.4476 184.964 67.7955 180 72.7598L95.496 158.46C89.6381 164.318 80.1406 164.318 74.2828 158.46Z" fill="url(#paint1_linear_4_30)"/>
</g>
<g filter="url(#filter1_d_4_30)">
<path d="M277.871 158H219.863V153.254H236.562V57.2773H233.574C229.59 57.2773 226.191 58.0391 223.379 59.5625C219.277 61.9063 215.938 66.8281 213.359 74.3281L207.91 90.1484H202.637L203.34 52.5312H294.395L295.098 90.1484H289.824L284.375 74.3281C283.555 72.1016 282.793 70.168 282.09 68.5273C278.574 61.0273 272.598 57.2773 264.16 57.2773H261.172V153.254H273.125C275.586 153.488 277.168 155.07 277.871 158ZM360.137 50.7734C373.379 50.7734 384.922 54.3477 394.766 61.4961C408.477 71.5742 415.332 86.2812 415.332 105.617C415.332 121.555 409.883 134.68 398.984 144.992C388.32 154.836 375.195 159.758 359.609 159.758C345.898 159.758 333.945 155.832 323.75 147.98C310.508 137.668 303.887 123.312 303.887 104.914C303.887 88.8594 309.453 75.7344 320.586 65.5391C331.367 55.6953 344.551 50.7734 360.137 50.7734ZM360.137 154.66C365.527 154.66 370.039 153.488 373.672 151.145C383.047 145.168 387.734 129.699 387.734 104.738C387.734 94.1914 386.855 85.3438 385.098 78.1953C381.348 63.3125 372.852 55.8711 359.609 55.8711C355.625 55.8711 352.051 56.5742 348.887 57.9805C337.285 62.9023 331.484 78.7812 331.484 105.617C331.484 119.68 332.949 130.578 335.879 138.312C340.098 149.211 348.184 154.66 360.137 154.66ZM425 52.5312H476.855C489.863 52.5312 501.23 55.6367 510.957 61.8477C525.723 71.457 533.105 86.0469 533.105 105.617C533.105 120.969 527.949 133.508 517.637 143.234C507.09 153.078 493.672 158 477.383 158H425V153.254H439.062V57.2773H425V52.5312ZM477.383 57.2773H463.672V153.254H477.031C482.539 153.254 487.168 152.141 490.918 149.914C500.645 144.172 505.508 129.113 505.508 104.738C505.508 92.5508 504.336 82.7656 501.992 75.3828C497.891 63.3125 489.688 57.2773 477.383 57.2773ZM601.66 50.7734C614.902 50.7734 626.445 54.3477 636.289 61.4961C650 71.5742 656.855 86.2812 656.855 105.617C656.855 121.555 651.406 134.68 640.508 144.992C629.844 154.836 616.719 159.758 601.133 159.758C587.422 159.758 575.469 155.832 565.273 147.98C552.031 137.668 545.41 123.312 545.41 104.914C545.41 88.8594 550.977 75.7344 562.109 65.5391C572.891 55.6953 586.074 50.7734 601.66 50.7734ZM601.66 154.66C607.051 154.66 611.562 153.488 615.195 151.145C624.57 145.168 629.258 129.699 629.258 104.738C629.258 94.1914 628.379 85.3438 626.621 78.1953C622.871 63.3125 614.375 55.8711 601.133 55.8711C597.148 55.8711 593.574 56.5742 590.41 57.9805C578.809 62.9023 573.008 78.7812 573.008 105.617C573.008 119.68 574.473 130.578 577.402 138.312C581.621 149.211 589.707 154.66 601.66 154.66Z" fill="black"/>
</g>
</g>
<defs>
<filter id="filter0_d_4_30" x="27" y="52" width="167.045" height="118.854" filterUnits="userSpaceOnUse" color-interpolation-filters="sRGB">
<feFlood flood-opacity="0" result="BackgroundImageFix"/>
<feColorMatrix in="SourceAlpha" type="matrix" values="0 0 0 0 0 0 0 0 0 0 0 0 0 0 0 0 0 0 127 0" result="hardAlpha"/>
<feOffset dy="4"/>
<feGaussianBlur stdDeviation="2"/>
<feComposite in2="hardAlpha" operator="out"/>
<feColorMatrix type="matrix" values="0 0 0 0 0 0 0 0 0 0 0 0 0 0 0 0 0 0 0.25 0"/>
<feBlend mode="normal" in2="BackgroundImageFix" result="effect1_dropShadow_4_30"/>
<feBlend mode="normal" in="SourceGraphic" in2="effect1_dropShadow_4_30" result="shape"/>
</filter>
<filter id="filter1_d_4_30" x="198.637" y="50.7734" width="462.219" height="116.984" filterUnits="userSpaceOnUse" color-interpolation-filters="sRGB">
<feFlood flood-opacity="0" result="BackgroundImageFix"/>
<feColorMatrix in="SourceAlpha" type="matrix" values="0 0 0 0 0 0 0 0 0 0 0 0 0 0 0 0 0 0 127 0" result="hardAlpha"/>
<feOffset dy="4"/>
<feGaussianBlur stdDeviation="2"/>
<feComposite in2="hardAlpha" operator="out"/>
<feColorMatrix type="matrix" values="0 0 0 0 0 0 0 0 0 0 0 0 0 0 0 0 0 0 0.25 0"/>
<feBlend mode="normal" in2="BackgroundImageFix" result="effect1_dropShadow_4_30"/>
<feBlend mode="normal" in="SourceGraphic" in2="effect1_dropShadow_4_30" result="shape"/>
</filter>
<linearGradient id="paint0_linear_4_30" x1="110.523" y1="52" x2="85.5" y2="300.5" gradientUnits="userSpaceOnUse">
<stop stop-color="#0DBDFD"/>
<stop offset="1" stop-color="#082997"/>
</linearGradient>
<linearGradient id="paint1_linear_4_30" x1="110.523" y1="52" x2="85.5" y2="300.5" gradientUnits="userSpaceOnUse">
<stop stop-color="#0DBDFD"/>
<stop offset="1" stop-color="#082997"/>
</linearGradient>
<clipPath id="clip0_4_30">
<rect width="763" height="213" fill="white"/>
</clipPath>
</defs>
</svg>
